<?xml version="1.0" standalone="no"?>
<!DOCTYPE svg PUBLIC "-//W3C//DTD SVG 1.1//EN" "http://www.w3.org/Graphics/SVG/1.1/DTD/svg11.dtd" >
<svg xmlns="http://www.w3.org/2000/svg">
<metadata>
Created by FontForge 20120731 at Wed Sep 21 10:40:21 2016
 By admin
</metadata>
<defs>
<font id="iconfont" horiz-adv-x="1024" >
  <font-face 
    font-family="iconfont"
    font-weight="500"
    font-stretch="normal"
    units-per-em="1024"
    panose-1="2 0 6 3 0 0 0 0 0 0"
    ascent="896"
    descent="-128"
    x-height="792"
    bbox="-0.166668 -224 1536 896.083"
    underline-thickness="50"
    underline-position="-100"
    unicode-range="U+0078-E639"
  />
<missing-glyph horiz-adv-x="374" 
d="M34 0v682h272v-682h-272zM68 34h204v614h-204v-614z" />
    <glyph glyph-name=".notdef" horiz-adv-x="374" 
d="M34 0v682h272v-682h-272zM68 34h204v614h-204v-614z" />
    <glyph glyph-name=".null" horiz-adv-x="0" 
 />
    <glyph glyph-name="nonmarkingreturn" horiz-adv-x="341" 
 />
    <glyph glyph-name="x" unicode="x" horiz-adv-x="1001" 
d="M281 543q-27 -1 -53 -1h-83q-18 0 -36.5 -6t-32.5 -18.5t-23 -32t-9 -45.5v-76h912v41q0 16 -0.5 30t-0.5 18q0 13 -5 29t-17 29.5t-31.5 22.5t-49.5 9h-133v-97h-438v97zM955 310v-52q0 -23 0.5 -52t0.5 -58t-10.5 -47.5t-26 -30t-33 -16t-31.5 -4.5q-14 -1 -29.5 -0.5
t-29.5 0.5h-32l-45 128h-439l-44 -128h-29h-34q-20 0 -45 1q-25 0 -41 9.5t-25.5 23t-13.5 29.5t-4 30v167h911zM163 247q-12 0 -21 -8.5t-9 -21.5t9 -21.5t21 -8.5q13 0 22 8.5t9 21.5t-9 21.5t-22 8.5zM316 123q-8 -26 -14 -48q-5 -19 -10.5 -37t-7.5 -25t-3 -15t1 -14.5
t9.5 -10.5t21.5 -4h37h67h81h80h64h36q23 0 34 12t2 38q-5 13 -9.5 30.5t-9.5 34.5q-5 19 -11 39h-368zM336 498v228q0 11 2.5 23t10 21.5t20.5 15.5t34 6h188q31 0 51.5 -14.5t20.5 -52.5v-227h-327z" />
    <glyph glyph-name="uniE600" unicode="&#xe600;" 
d="M512 832q121 0 224.5 -60t163.5 -163.5t60 -224.5t-60 -224.5t-163.5 -163.5t-224.5 -60t-224.5 60t-163.5 163.5t-60 224.5t60 224.5t163.5 163.5t224.5 60zM403 403q-1 0 -3 -1.5t-3 -1.5q-3 -3 -13 -3q-24 -6 -42 -19q-37 -30 -44 -100v-3q-10 -43 -10 -73
q0 -8 1.5 -14.5t3 -11.5t5.5 -9.5t6 -7t7 -5.5t6.5 -4t6.5 -3.5t6 -2.5q38 -13 60 -16q80 -16 119 -16q44 0 118 16q9 3 29.5 7.5t31.5 8.5l8 4q7 3 9.5 4.5t9 6.5t9 10t4.5 12.5t2 16.5q0 23 -7 74v3q0 1 -2 11l-3 12q0 3 -2 12t-3.5 13t-4 12t-5.5 12.5t-6.5 10.5t-8 10.5
t-10.5 9.5q-17 13 -41 19q-2 0 -6.5 1.5t-6.5 1.5l-6 3q21 43 25 90q10 70 -32 121q-34 42 -102 42t-103 -42q-41 -46 -32 -121q10 -50 29 -90zM512 864q-199 0 -339.5 -140.5t-140.5 -339.5t140.5 -339.5t339.5 -140.5t339.5 140.5t140.5 339.5t-140.5 339.5t-339.5 140.5z
M512 368q-25 0 -44.5 11.5t-31 31t-18 40.5t-8.5 45q-8 55 19 90t83 35t83 -35t19 -90q-2 -24 -8.5 -45t-18 -40.5t-31 -31t-44.5 -11.5zM512 342q48 0 83 36q13 -7 23 -10q5 -2 14.5 -5.5t17.5 -6.5t16 -7q5 -5 9.5 -11.5t7.5 -12.5t6 -16t4.5 -14.5t4 -15.5t3.5 -13
q6 -45 6 -68v-4q0 -3 -1 -5l-2 -3q0 -1 -2 -2.5t-2.5 -2.5t-3 -2.5t-3.5 -2.5l-4 -2q-3 -1 -4 -1q-39 -13 -58 -16q-77 -13 -112 -13q-41 0 -112 13q-19 3 -57 16q-16 5 -21 9.5t-5 15.5q0 23 6 68q1 3 4.5 20t6 25.5t9.5 20t16 17.5q5 4 13 7t19 6l16 6q3 2 11 5t11 5
q30 -36 80 -36z" />
    <glyph glyph-name="uniE601" unicode="&#xe601;" 
d="M249 530q67 0 123 -45t79 -118l6 -24h86v-45h252h130v45h10l41 -62l-41 -58h-481l-7 -24q-23 -74 -78.5 -119t-122.5 -45q-88 6 -150 78t-62 172q0 48 17 94t48 80q61 71 150 71zM171 189q41 0 70 29t29 70t-27.5 68.5t-68.5 27.5t-68 -29t-27 -70q-6 -39 22 -67.5
t70 -28.5zM249 564q-102 0 -175.5 -82t-73.5 -197.5t73.5 -197.5t175.5 -82q81 0 145.5 52t90.5 135h474l65 93l-65 95h-61v-44h-62v44h-68v-44h-61v44h-62v-44h-61v44h-96q-28 83 -93 133.5t-146 50.5zM171 223q-26 0 -44 18t-18 43.5t18 43.5t44 18q25 0 43 -18t18 -43.5
t-18 -43.5t-43 -18v0z" />
    <glyph glyph-name="uniE602" unicode="&#xe602;" 
d="M744 766q15 0 24.5 -10.5t9.5 -23.5v-888q0 -15 -10 -24.5t-24 -9.5h-437q-15 0 -24.5 10.5t-9.5 23.5v888q0 15 10.5 24.5t23.5 9.5h437zM744 800h-437q-28 0 -48 -20t-20 -48v-888q0 -28 20 -48t48 -20h437q28 0 48 20t20 48v888q0 28 -20 48t-48 20zM358 390
q0 -10 -8.5 -18.5t-18.5 -8.5h-7q-10 0 -18.5 8.5t-8.5 18.5q0 11 8.5 19.5t18.5 8.5h7q10 0 18.5 -8.5t8.5 -19.5zM437 390q0 -10 -8.5 -18.5t-18.5 -8.5h-7q-10 0 -19 8.5t-9 18.5q0 11 9 19.5t19 8.5h7q10 0 18.5 -8.5t8.5 -19.5zM515 390q0 -10 -8.5 -18.5t-18.5 -8.5
h-7q-10 0 -18.5 8.5t-8.5 18.5q0 11 8.5 19.5t18.5 8.5h7q10 0 18.5 -8.5t8.5 -19.5zM594 390q0 -10 -8.5 -18.5t-18.5 -8.5h-7q-10 0 -19 8.5t-9 18.5q0 11 9 19.5t19 8.5h7q12 0 19.5 -8.5t7.5 -19.5zM672 390q0 -10 -8.5 -18.5t-18.5 -8.5h-7q-10 0 -18.5 8.5t-8.5 18.5
q0 11 8.5 19.5t18.5 8.5h7q12 0 19.5 -8.5t7.5 -19.5zM751 390q0 -10 -8.5 -18.5t-18.5 -8.5h-7q-10 0 -19 8.5t-9 18.5q0 11 9 19.5t19 8.5h7q12 0 19.5 -8.5t7.5 -19.5zM297 305h218v-34h-218v34zM492 -128.5q0 -14.5 10 -24.5t24 -10t24 10t10 24.5t-10 24.5t-24 10
t-24 -10t-10 -24.5zM259 -40h519v-34h-519v34z" />
    <glyph glyph-name="uniE603" unicode="&#xe603;" 
d="M512 864q-199 0 -339.5 -140.5t-140.5 -339.5t140.5 -339.5t339.5 -140.5t339.5 140.5t140.5 339.5t-140.5 339.5t-339.5 140.5zM733 547l-237 -381q-17 -22 -38 -22h-4q-24 0 -38 19l-122 160q-12 17 -9.5 36.5t19.5 30.5q17 13 36 10t31 -19l80 -106l202 323
q9 17 28 21.5t36 -5.5q17 -12 21 -31t-5 -36z" />
    <glyph glyph-name="uniE604" unicode="&#xe604;" 
d="M512 864q-199 0 -339.5 -140.5t-140.5 -339.5t140.5 -339.5t339.5 -140.5t339.5 140.5t140.5 339.5t-140.5 339.5t-339.5 140.5zM573 707l-23 -441h-76l-23 441h122zM560 77q-14 -19 -48 -19q-27 0 -48 16q-16 26 -16 54q0 32 16 48q21 16 48 16t48 -16q16 -21 16 -48
q0 -30 -16 -51z" />
    <glyph glyph-name="uniE605" unicode="&#xe605;" 
d="M512 748l-512 -896h1024zM576 460l-32 -352h-64l-32 352h128zM512 -84q-26 0 -45 19t-19 45t19 45t45 19t45 -19t19 -45t-19 -45t-45 -19z" />
    <glyph glyph-name="uniE606" unicode="&#xe606;" 
d="M512 864q-97 0 -186 -38t-153.5 -102.5t-102.5 -153t-38 -186t38 -186.5t102.5 -153.5t153.5 -102.5t186 -38t186 38t153.5 102.5t102.5 153.5t38 186.5t-38 186t-102.5 153t-153.5 102.5t-186 38zM512 0q-104 0 -192.5 51.5t-140 140t-51.5 192.5t51.5 192.5t140 140
t192.5 51.5t192.5 -51.5t140 -140t51.5 -192.5t-51.5 -192.5t-140 -140t-192.5 -51.5z" />
    <glyph glyph-name="uniE607" unicode="&#xe607;" 
d="M512 864q-97 0 -186 -38t-153.5 -102.5t-102.5 -153t-38 -186t38 -186.5t102.5 -153.5t153.5 -102.5t186 -38t186 38t153.5 102.5t102.5 153.5t38 186.5t-38 186t-102.5 153t-153.5 102.5t-186 38zM512 0q-104 0 -192.5 51.5t-140 140t-51.5 192.5t51.5 192.5t140 140
t192.5 51.5t192.5 -51.5t140 -140t51.5 -192.5t-51.5 -192.5t-140 -140t-192.5 -51.5zM512 624q-99 0 -169.5 -70.5t-70.5 -169.5t70.5 -169.5t169.5 -70.5t169.5 70.5t70.5 169.5t-70.5 169.5t-169.5 70.5z" />
    <glyph glyph-name="uniE608" unicode="&#xe608;" 
d="M851 723q-67 67 -154.5 104t-185 37t-186.5 -38t-153 -102.5t-102 -153t-38 -186.5t38 -186.5t102 -153t153 -102.5t187 -38q166 0 294.5 101.5t169.5 258.5h-125q-38 -106 -130.5 -173t-208.5 -67q-98 0 -181 48t-131 131t-48 181t48 181t131 131t181 48q72 0 137.5 -28
t115.5 -78l-193 -194h420v420z" />
    <glyph glyph-name="uniE609" unicode="&#xe609;" 
d="M911 723h-800q-46 0 -78.5 -33t-32.5 -79v-454q0 -46 33 -79t80 -33h800q46 0 78.5 33t32.5 79v454q0 46 -33 79t-80 33zM911 691q11 0 21 -3l-320 -195q-45 -26 -96.5 -26t-95.5 26l-329 195q10 3 22 3h798zM992 157q0 -33 -23.5 -56.5t-57.5 -23.5h-800q-33 0 -56 23.5
t-23 56.5v454q0 35 26 59l344 -205q52 -31 113 -31t113 31l336 205q27 -24 28 -59v-454z" />
    <glyph glyph-name="uniE60A" unicode="&#xe60a;" 
d="M922 702q28 1 48.5 -18.5t21.5 -47.5v-1v-502q-1 -28 -21 -47.5t-48 -19.5h-1h-820q-28 -1 -48.5 18.5t-21.5 47.5v1v502q1 28 21 47.5t48 19.5h1h820zM288 350q52 5 88.5 43.5t39.5 90.5v52q0 53 -37.5 90.5t-90.5 37.5t-90.5 -37.5t-37.5 -90.5v-51q3 -53 39.5 -91.5
t88.5 -43.5zM608 480h288q25 -1 44 15.5t20 42.5v6q0 27 -18.5 45.5t-45.5 18.5h-288q-26 5 -48 -9.5t-27.5 -40.5t9.5 -48t41 -27q12 -3 25 0v-3zM608 323h288q25 -2 44 15t20 42v7q0 26 -18.5 45t-45.5 19h-288q-26 5 -48 -9.5t-27.5 -40.5t9.5 -48t41 -28q12 -2 25 0v-2z
M160 94h256q96 0 96 96h4v32q1 47 -23 88t-65 63v0q-16 7 -32 6q-54 -7 -88 -48l-5 -5v0l-10 -9h-1l-11 10v0q-23 20 -32.5 27.5t-27.5 17t-34 9.5q-19 0 -34 -11q-40 -23 -63.5 -62.5t-25.5 -85.5v-32q0 -96 96 -96zM608 158h288q25 -1 44 15.5t20 41.5v7q0 26 -18.5 45
t-45.5 19h-288q-27 0 -45.5 -19t-18.5 -45.5t18.5 -45t45.5 -18.5zM922 734h-820q-41 1 -71 -27.5t-31 -69.5v-2v-502q0 -41 29.5 -70t71.5 -29h1h820q41 -1 71 27.5t31 70.5v1v502q0 41 -29.5 70t-71.5 29h-1zM288 382q-39 5 -66 34t-30 68v52q0 40 28 68t68 28t68 -28
t28 -68v-51q-3 -40 -30 -69t-66 -34zM608 512q-13 -3 -24.5 3.5t-15 19t3 24t19.5 15.5q9 2 17 0h288q13 0 22.5 -9.5t9.5 -22.5q1 -12 -6 -21.5t-19 -10.5h-7zM608 352q-13 -3 -24.5 3.5t-15 19t3 24t19.5 15.5q9 2 17 0h288q13 0 22.5 -9.5t9.5 -22.5q1 -12 -6 -21.5
t-19 -10.5h-7zM160 126q-36 0 -50 14.5t-14 49.5v32q2 38 21 70.5t51 52.5q7 5 15 5q10 0 23.5 -7.5t22.5 -15t27 -23.5l10 -10q10 -10 24 -11q14 1 24 11l10 10q2 1 6 5q16 14 24 20.5t20 13t22 6.5q9 0 17 -4q34 -18 53.5 -51.5t18.5 -71.5q-2 0 -3.5 -8t-1.5 -16v-8
q0 -36 -14.5 -50t-49.5 -14h-256zM608 190q-13 0 -22.5 9.5t-9.5 22.5t9.5 22.5t22.5 9.5h288q13 0 22.5 -9.5t9.5 -22.5q1 -12 -6 -21.5t-19 -10.5h-7h-288z" />
    <glyph glyph-name="uniE60B" unicode="&#xe60b;" 
d="M731 896h-438q-29 0 -49.5 -20.5t-20.5 -49.5v-884q0 -29 20.5 -49.5t49.5 -20.5h438q28 0 48 20.5t20 49.5v884q0 29 -20 49.5t-48 20.5zM767 -58q0 -16 -10.5 -27t-25.5 -11h-438q-16 0 -27 11t-11 27v80h512v32h-512v772q0 16 11 27t27 11h438q15 0 25.5 -11t10.5 -27
v-884zM512 -33zM478 -33q0 14 10 24t24 10t24 -10t10 -24t-10 -24t-24 -10t-24 10t-10 24z" />
    <glyph glyph-name="uniE60C" unicode="&#xe60c;" 
d="M960 748v-896h-896v896h896zM1024 812h-1024v-1024h1024v1024z" />
    <glyph glyph-name="uniE60D" unicode="&#xe60d;" 
d="M0 812h1024v-1024h-1024v1024z" />
    <glyph glyph-name="uniE60E" unicode="&#xe60e;" 
d="M0 812v-1024h1024v1024h-1024zM886 591l-393 -646q-14 -24 -45 -29h-6q-31 0 -45 19l-253 288q-17 19 -15 44t21 39q20 17 44.5 15t39.5 -21l198 -227l352 579q12 22 37 27.5t46 -8.5q22 -9 28 -33.5t-9 -46.5z" />
    <glyph glyph-name="uniE60F" unicode="&#xe60f;" 
d="M0 812v-1024h1024v1024h-1024zM960 -148h-896v896h896v-896zM598 527q29 -24 29 -67q0 -38 -19 -67q-18 -27 -58 -58q-42 -33 -60 -61q-16 -24 -16 -67v-35h70v35q0 34 13 51q8 11 54 52q46 37 71 76q22 36 22 87q0 65 -48 109q-46 41 -128 41t-147 -41v-84q57 58 134 58
q60 -5 83 -29zM512 44zM448 44q0 26 19 45t45 19t45 -19t19 -45t-19 -45t-45 -19t-45 19t-19 45z" />
    <glyph glyph-name="uniE610" unicode="&#xe610;" 
d="M0 620h1024v-128h-1024v128zM0 364h1024v-128h-1024v128zM0 108h1024v-128h-1024v128z" />
    <glyph glyph-name="uniE611" unicode="&#xe611;" 
d="M0 544l512 -512l512 512h-1024z" />
    <glyph glyph-name="uniE612" unicode="&#xe612;" 
d="M1024 630l-182 182l-330 -330l-330 330l-182 -182l330 -330l-330 -330l182 -182l330 330l330 -330l182 182l-330 330z" />
    <glyph glyph-name="uniE613" unicode="&#xe613;" 
d="M660 59l90 91l272 -271l-90 -91zM384 812q-106 0 -194 -51t-139 -139t-51 -194q0 -104 51.5 -192.5t140 -140t192.5 -51.5t192.5 51.5t140 140t51.5 192.5q0 105 -51.5 193.5t-140 139.5t-192.5 51zM384 108q-87 0 -160.5 43t-116.5 116.5t-43 160.5t43 160.5
t116.5 116.5t160.5 43t160.5 -43t116.5 -116.5t43 -160.5t-43 -160.5t-116.5 -116.5t-160.5 -43z" />
    <glyph glyph-name="uniE614" unicode="&#xe614;" 
d="M512 621zM321 620.5q0 79.5 56 135.5t135 56t135 -56t56 -135.5t-56 -135.5t-135 -56t-135 56t-56 135.5zM601 365h-185q-75 0 -141.5 -37.5t-106 -102.5t-39.5 -140v-227v-3l16 -6q199 -61 386 -61q91 0 176.5 16t117 27t44.5 18l23 6v226q1 76 -40 142.5t-108.5 104
t-142.5 37.5z" />
    <glyph glyph-name="uniE615" unicode="&#xe615;" 
d="M956 486h-83q-13 45 -35 83l60 60q20 20 20 48.5t-20 48.5l-48 48q-21 20 -49 20t-48 -20l-61 -60q-36 19 -78 31v83q0 28 -20 48t-48 20h-68q-28 0 -48 -20t-20 -48v-83q-43 -12 -80 -33l-63 62q-20 20 -48.5 20t-48.5 -20l-48 -48q-20 -20 -20 -48.5t20 -48.5l62 -63
q-21 -37 -33 -80h-83q-28 0 -48 -20t-20 -48v-68q0 -28 20 -48t48 -20h83q12 -42 31 -78l-60 -61q-20 -20 -20 -48t20 -49l48 -48q20 -20 48.5 -20t48.5 20l60 60q39 -23 83 -35v-83q0 -28 20 -48t48 -20h68q28 0 48 20t20 48v83q43 12 80 33l58 -58q21 -20 49 -20t48 20
l49 48q20 21 20 49t-20 49l-58 58q21 37 33 80h83q28 0 48 20t20 48v68q0 28 -20 48t-48 20zM512 179q-85 0 -145 60t-60 145t60 145t145 60t145 -60t60 -145t-60 -145t-145 -60z" />
    <glyph glyph-name="uniE616" unicode="&#xe616;" 
d="M512 832q185 0 316.5 -131.5t131.5 -316.5t-131.5 -316.5t-316.5 -131.5t-316.5 131.5t-131.5 316.5t131.5 316.5t316.5 131.5zM512 896q-139 0 -257 -68.5t-186.5 -186.5t-68.5 -257t68.5 -257t186.5 -186.5t257 -68.5t257 68.5t186.5 186.5t68.5 257t-68.5 257
t-186.5 186.5t-257 68.5zM897 433h-352v352h-64v-352h-352v-64h352v-352h64v352h352v64z" />
    <glyph glyph-name="uniE617" unicode="&#xe617;" horiz-adv-x="1031" 
d="M902 896v-662h-613v217l-289 -290l289 -289v217h613h129v807h-129z" />
    <glyph glyph-name="uniE618" unicode="&#xe618;" 
d="M512 116q40 0 69 28.5t29 69t-29 69t-69 28.5t-69 -28.5t-29 -69t29 -69t69 -28.5zM805 555h-49v97q0 101 -71.5 172.5t-172.5 71.5t-172.5 -71.5t-71.5 -172.5h93q0 63 44 107t107 44t107 -44t44 -107v-97h-444q-40 0 -68.5 -29t-28.5 -69v-487q0 -41 28.5 -69.5
t68.5 -28.5h586q40 0 68.5 28.5t28.5 69.5v487q0 40 -28.5 69t-68.5 29zM805 -30h-586v487h586v-487z" />
    <glyph glyph-name="uniE619" unicode="&#xe619;" 
d="M512 896q-139 0 -257 -68.5t-186.5 -186.5t-68.5 -257t68.5 -257t186.5 -186.5t257 -68.5t257 68.5t186.5 186.5t68.5 257t-68.5 257t-186.5 186.5t-257 68.5zM512 742q64 0 109 -44.5t45 -108.5t-45 -109t-109 -45t-109 45t-45 109t45 108.5t109 44.5zM512 15
q-94 0 -175.5 44.5t-131.5 120.5q0 36 33.5 67.5t82.5 50.5t100 29.5t91 10.5t91 -10.5t100 -29.5t82.5 -50.5t33.5 -67.5q-50 -76 -131.5 -120.5t-175.5 -44.5z" />
    <glyph glyph-name="uniE61A" unicode="&#xe61a;" horiz-adv-x="1537" 
d="M0 165h585v146h-585v-146zM1024 91l-219 220l-110 -110l329 -329l512 512l-110 110zM0 457h878v146h-878v-146zM0 750h878v146h-878v-146z" />
    <glyph glyph-name="uniE61B" unicode="&#xe61b;" horiz-adv-x="1028" 
d="M3 607h1024v-68h-1024v68zM703 744v-137h-375v137h375zM771 812h-512v-273h512v273zM823 539v-683h-615v683h615zM891 607h-751v-819h751v819zM300 474h69v-512h-69v512zM478 474h68v-512h-68v512zM655 474h69v-512h-69v512z" />
    <glyph glyph-name="uniE61C" unicode="&#xe61c;" 
d="M512 648q-172 0 -311 -96t-201 -252q62 -156 201 -252t311 -96t311 96t201 252q-62 156 -201 252t-311 96zM512 68q-97 0 -164.5 68.5t-67.5 163.5t68.5 163.5t163.5 68.5t163.5 -68.5t68.5 -163.5t-67.5 -163.5t-164.5 -68.5zM512 440q-59 0 -99.5 -40.5t-40.5 -99.5
t40.5 -99.5t99.5 -40.5t99.5 40.5t40.5 99.5t-40.5 99.5t-99.5 40.5z" />
    <glyph glyph-name="uniE61D" unicode="&#xe61d;" 
d="M832 -148h-768v768h512v64h-576v-896h896v576h-64v-512zM392 91l-90 91l543 543l90 -91zM851 730l82 82l90 -91l-81 -81zM291 169l-13 -103l103 13z" />
    <glyph glyph-name="uniE61E" unicode="&#xe61e;" horiz-adv-x="1025" 
d="M416 -212q-36 0 -60 29l-336 384q-22 24 -20 57t26 54.5t57 19.5t55 -26l266 -301l470 768q17 29 49.5 37t58.5 -11q29 -17 37 -50t-11 -59l-528 -864q-19 -33 -60 -38h-4z" />
    <glyph glyph-name="uniE61F" unicode="&#xe61f;" 
d="M1024 364h-448v448h-128v-448h-448v-128h448v-448h128v448h448v128z" />
    <glyph glyph-name="uniE620" unicode="&#xe620;" 
d="M256 800l512 -512l-512 -512v1024z" />
    <glyph glyph-name="uniE621" unicode="&#xe621;" 
d="M960 736h-192q-27 0 -45.5 -18.5t-18.5 -45.5h-512v-64h754l-86 -431l-92 367h-768l128 -512h768l128 640q0 26 -19 45t-45 19zM640 256h-160v-160h-64v160h-160v64h160v160h64v-160h160v-64z" />
    <glyph glyph-name="uniE622" unicode="&#xe622;" 
d="M960 736h-192q-27 0 -45.5 -18.5t-18.5 -45.5h-512v-64h754l-86 -431l-92 367h-768l128 -512h768l128 640q0 26 -19 45t-45 19z" />
    <glyph glyph-name="uniE623" unicode="&#xe623;" 
d="M765 800h-506q-5 0 -9 -4.5t-4 -9.5v-993q0 -8 10 -14h7q7 0 10 4l242 242l243 -242q8 -8 17 -4q10 6 10 14v993q-14 14 -20 14z" />
    <glyph glyph-name="uniE624" unicode="&#xe624;" 
d="M960 460h-256v352h-384v-352h-256l451 -416zM64 -84v-128h896v128h-896z" />
    <glyph glyph-name="uniE625" unicode="&#xe625;" 
d="M352 460h128v-128h-128v128zM547 460h128v-128h-128v128zM739 460h128v-128h-128v128zM160 76h131v-128h-131v128zM352 76h128v-128h-128v128zM547 76h128v-128h-128v128zM352 268h131v-128h-131v128zM547 268h128v-128h-128v128zM739 268h128v-128h-128v128zM160 268
h128v-128h-128v128zM832 812v-61h-125v61h-387v-61h-125v61h-163v-1024h960v1024h-160zM928 -148h-832v704h832v-704z" />
    <glyph glyph-name="uniE626" unicode="&#xe626;" 
d="M307.5 -7q-43.5 0 -73 -29.5t-29.5 -73t29.5 -73t73 -29.5t73 29.5t29.5 73t-29.5 73t-73 29.5zM0 812v-102h102l185 -390l-72 -122q-10 -26 -10 -52q0 -43 29.5 -72.5t72.5 -29.5h615v102h-594q-5 0 -8 3.5t-3 7.5v6l45 86h379q60 0 88 51l185 335q10 10 10 23
q0 23 -14 37.5t-37 14.5h-758l-44 102h-171zM819.5 -7q-43.5 0 -73 -29.5t-29.5 -73t29.5 -73t73 -29.5t73 29.5t29.5 73t-29.5 73t-73 29.5z" />
    <glyph glyph-name="uniE627" unicode="&#xe627;" 
d="M512 845q130 0 226 -26q29 -8 48 -18t24 -15t5 -8t-5 -8t-24 -15t-48 -19q-91 -25 -226 -25q-130 0 -226 25q-28 9 -46 19t-23 15t-5 8t5 8t24 15t48 18q92 26 223 26zM512 896q-66 0 -126.5 -7t-112 -20.5t-82 -37t-30.5 -53.5t30.5 -53.5t82 -37t112 -20.5t126.5 -7
t126.5 7t112 20.5t82 37t30.5 53.5t-30.5 53.5t-82 37t-112 20.5t-126.5 7zM863 51v670l-38 -26q-34 -23 -118.5 -40t-194.5 -17t-194.5 17t-118.5 40l-38 22v-670v-35q0 -34 31 -61.5t81.5 -44.5t112 -25.5t126.5 -8.5t126.5 8.5t112 25.5t81.5 44.5t31 61.5v39zM512 587
q196 0 300 44v-539q-48 32 -128 48t-172 16t-173 -16t-127 -48v539q104 -44 300 -44z" />
    <glyph glyph-name="uniE628" unicode="&#xe628;" 
d="M528 896q-104 0 -192.5 -18t-140 -49t-51.5 -67v-199q0 -36 51.5 -67t140 -49t192.5 -18t192.5 18t140 49t51.5 67v199q0 36 -51.5 67t-140 49t-192.5 18zM528 653q-128 0 -217.5 31.5t-89.5 77t89.5 77t217.5 31.5t217.5 -31.5t89.5 -77t-89.5 -77t-217.5 -31.5z
M528 368q-151 0 -261.5 36t-122.5 89v-10v-195q0 -36 51.5 -67t140 -49t192.5 -18t192.5 18t140 49t51.5 67v198v10q-12 -53 -123 -90.5t-261 -37.5zM528 90q-151 0 -261.5 36t-122.5 88v-9v-199q0 -36 51.5 -67t140 -49t192.5 -18t192.5 18t140 49t51.5 67v199v9
q-12 -52 -122.5 -88t-261.5 -36z" />
    <glyph glyph-name="uniE629" unicode="&#xe629;" 
d="M0 737v-833h1024v833h-1024zM959 -31h-894v638h894v-638zM577 481h321v-65h-321v65zM577 351h321v-65h-321v65zM577 225h191v-65h-191v65zM130 481h321v-321h-321v321z" />
    <glyph glyph-name="uniE62A" unicode="&#xe62a;" 
d="M14 510q-10 0 -13 -6.5t2 -14.5l168 -194q20 -21 44 -21h218l-259 226zM1010 537l-344 106q-11 3 -24 0t-21 -10l-61 -62l-4 -3l-64 82q-3 10 -13.5 16.5t-21.5 3.5l-303 -41q-13 0 -18 -8.5t1 -18.5l37 -106l389 45q4 0 4 -4l300 -133l-440 -130l105 -160
q6 -11 17.5 -15t23.5 1l417 133q10 3 12 11.5t-5 16.5l-89 140q2 1 7 3t7 3l95 99q15 20 -7 31zM563 63q-10 -3 -21 1.5t-16 11.5l-103 168h-228v-75q0 -8 4 -18.5t9 -16.5l236 -279q13 -13 30 -7l362 143q8 3 14.5 11.5t6.5 15.5l17 144z" />
    <glyph glyph-name="uniE62B" unicode="&#xe62b;" 
d="M886 797h-731v-1021h731v1021zM811 150q-7 -43 -41 -70.5t-78 -27.5q-48 0 -82 32.5t-37 79.5v7q0 51 36 86.5t87 35.5t86.5 -35.5t35.5 -86.5q-7 -14 -7 -21zM424 749q69 0 119.5 -49.5t50.5 -120.5q0 -72 -49.5 -121t-121 -49t-121 49t-49.5 120.5t49.5 121t121.5 49.5
zM849 -176h-653v547q5 2 14.5 4t37 5.5t54.5 3t61.5 -7.5t63 -21.5t55 -44.5t40.5 -71q3 -5 8 -18.5t9 -19.5q-3 -10 -3 -30q0 -64 46.5 -110.5t109.5 -46.5q61 0 105 40t52 100v-330zM315 637h217v-24h-217v24zM315 545h217v-24h-217v24zM277 171h218v-24h-218v24zM284 592
h276v-23h-276v23zM243 177q9 0 15 -5t6 -15q0 -8 -5.5 -14t-15.5 -6q-8 0 -14 5t-6 15q7 20 20 20zM277 82h218v-24h-218v24zM243 89q9 0 15 -5.5t6 -14.5q0 -17 -21 -17q-8 0 -14 5t-6 15q6 17 20 17zM277 -3h218v-24h-218v24zM243 4q9 0 15 -5.5t6 -14.5t-5.5 -15
t-15.5 -6q-8 0 -14 5.5t-6 15.5q7 20 20 20zM277 -91h218v-24h-218v24zM243 -85q9 0 15 -5t6 -15q0 -8 -5.5 -14t-15.5 -6q-8 0 -14 5t-6 15q5 20 20 20z" />
    <glyph glyph-name="uniE62C" unicode="&#xe62c;" 
d="M0 769v-959h1024v959h-1024zM956 -125h-888v799h888v-799zM631 87h246v-113h-246v113zM631 254h246v-113h-246v113zM631 585h246v-113h-246v113zM631 421h246v-113h-246v113zM410 83l201 205l-201 205v-126h-284v-158h284v-126z" />
    <glyph glyph-name="uniE62D" unicode="&#xe62d;" 
d="M939 735h-854q-36 0 -60.5 -24.5t-24.5 -60.5v-557q0 -35 24.5 -60t60.5 -25h277l-55 -113q-11 -16 4 -37q11 -17 30 -17h338q16 0 27 11t11 26q0 14 -4 17l-51 113h277q36 0 60.5 25t24.5 60v557q0 36 -24.5 60.5t-60.5 24.5zM949 93q0 -6 -7 -6h-857q-6 0 -6 6v557
q0 7 6 7h854q6 0 6 -7v-557h4zM188 384q36 -6 61 20l208 -75q3 -29 22 -49t47 -23q31 -2 56.5 18t28.5 51v10l177 129q4 -1 9.5 -3t10.5 -3.5t11 -3.5q31 -2 57 18t29 51q2 31 -18 56.5t-51 28.5q-31 2 -57 -18t-28 -50q0 -28 7 -38l-161 -116q-22 23 -51 27q-23 3 -42 -6.5
t-30 -27.5l-201 72q3 31 -17.5 57t-50.5 28q-31 3 -57 -17.5t-29 -50.5q-5 -31 15.5 -57t53.5 -28zM802 534q0 11 9.5 18.5t21.5 5.5q11 0 18.5 -9.5t5.5 -21.5q0 -11 -9.5 -18.5t-21.5 -5.5q-11 3 -18.5 12t-5.5 19zM509 339q0 11 9 19t21 5q11 0 19 -9t5 -22q0 -10 -9 -18
t-22 -6q-10 0 -16.5 9t-6.5 22zM167 462q0 11 9.5 18.5t21.5 5.5q11 0 18.5 -9t5.5 -22q0 -11 -9.5 -18.5t-21.5 -5.5q-10 3 -17 12t-7 19zM829 411h-10q-10 0 -24 7l-157 -113q-5 -38 -34.5 -63.5t-67.5 -25.5h-10q-33 3 -57 25t-32 54l-181 65q-26 -21 -58 -21h-10
q-42 5 -65 34v-252h788v324q-39 -34 -82 -34z" />
    <glyph glyph-name="uniE62E" unicode="&#xe62e;" 
d="M526 452h-499q-18 -50 -24 -113h475zM604 623h-478q-44 -51 -68 -103h502zM942 15q79 120 79 273q0 141 -70 258.5t-190 185.5l-191 -430zM0 237q13 -128 84 -233.5t184 -166.5t244 -61q107 0 202.5 41.5t166.5 115.5l-386 304h-495zM669 773q-76 27 -157 27
q-172 0 -314 -109h437z" />
    <glyph glyph-name="uniE62F" unicode="&#xe62f;" 
d="M128 -84v896h-128v-896v-26v-102h1024v128h-896zM531 300l237 -128l256 448l-112 64l-192 -336l-208 112l-326 -326l89 -90z" />
    <glyph glyph-name="uniE630" unicode="&#xe630;" 
d="M736 812h-608v-1024h768v864zM832 -148h-640v896h512v-160h131zM384 524h384v-64h-384v64zM384 396h384v-64h-384v64zM384 268h384v-64h-384v64zM384 140h384v-64h-384v64zM288 492zM256 492q0 13 9.5 22.5t22.5 9.5t22.5 -9.5t9.5 -22.5t-9.5 -22.5t-22.5 -9.5
t-22.5 9.5t-9.5 22.5zM288 364zM256 364q0 13 9.5 22.5t22.5 9.5t22.5 -9.5t9.5 -22.5t-9.5 -22.5t-22.5 -9.5t-22.5 9.5t-9.5 22.5zM288 236zM256 236q0 13 9.5 22.5t22.5 9.5t22.5 -9.5t9.5 -22.5t-9.5 -22.5t-22.5 -9.5t-22.5 9.5t-9.5 22.5zM288 108zM256 108
q0 13 9.5 22.5t22.5 9.5t22.5 -9.5t9.5 -22.5t-9.5 -22.5t-22.5 -9.5t-22.5 9.5t-9.5 22.5z" />
    <glyph glyph-name="uniE631" unicode="&#xe631;" 
d="M1020 440q0 9 -11 17.5t-21 8.5q-36 0 -65 19.5t-41 50.5q-14 34 -6 69t35 59q8 7 9 17.5t-6 20.5q-33 42 -80 83q-9 7 -20 6.5t-18 -9.5q-23 -26 -60 -33.5t-68 4.5q-32 14 -51 44.5t-19 67.5q0 12 -7 20.5t-18 8.5q-58 4 -115 0q-12 -3 -19 -11t-7 -18q3 -36 -17 -66.5
t-53 -42.5q-31 -12 -67.5 -3.5t-60.5 32.5q-20 14 -38 0q-58 -51 -83 -83q-7 -7 -5.5 -19t8.5 -19q27 -24 35 -59t-6 -69q-12 -31 -43 -50.5t-69 -19.5q-12 0 -20.5 -7t-8.5 -19q-4 -57 0 -115q3 -11 13 -18t23 -7q34 0 62.5 -18.5t42.5 -51.5q14 -34 6 -69t-35 -59
q-7 -8 -8.5 -18.5t5.5 -19.5q33 -43 80 -80q9 -8 20 -7t18 10q24 26 60.5 34.5t67.5 -5.5q33 -14 51.5 -44.5t18.5 -67.5q0 -12 7 -20.5t19 -8.5q19 -3 57 -3t57 3q12 3 19 11t7 18q-2 36 17.5 66.5t52.5 41.5q31 12 67.5 4t60.5 -32q7 -8 17.5 -9t20.5 6q46 36 83 83
q8 9 7 20t-10 18q-27 24 -35 59t6 69q12 30 42 50t64 20h6q12 0 20.5 7t8.5 18q0 77 -3 115zM512 127q-105 0 -180 75t-75 180.5t75 180.5t180 75t180 -75t75 -180.5t-75 -180.5t-180 -75zM352 383q0 -66 47 -113t113 -47t113 47t47 113t-47 112.5t-113 46.5t-113 -46.5
t-47 -112.5z" />
    <glyph glyph-name="uniE632" unicode="&#xe632;" 
d="M1024 -61l-154 157q26 46 26 99q0 79 -56.5 135.5t-135.5 56.5t-135.5 -56.5t-56.5 -135.5t56.5 -135.5t135.5 -56.5q50 0 96 26l154 -154zM576 192q0 53 37.5 90.5t90.5 37.5t90.5 -37.5t37.5 -90.5t-37.5 -90.5t-90.5 -37.5t-90.5 37.5t-37.5 90.5zM736 -64h-544v128
h-131l3 768h672v-384q35 0 64 -10v458h-800v-864l160 -160h640v74q-29 -10 -64 -10zM128 192h320v-64h-320v64zM128 288h320v-64h-320v64zM128 384h320v-64h-320v64zM224 576h64v-128h-64v128zM128 576h64v-128h-64v128zM320 640h64v-192h-64v192zM416 704h64v-256h-64v256z
M512 640h64v-192h-64v192zM608 768h64v-320h-64v320z" />
    <glyph glyph-name="uniE633" unicode="&#xe633;" horiz-adv-x="1027" 
d="M192 464q0 105 74 179t179 74h57v179h-502v-502h195q-3 19 -3 34v36zM745 435q34 0 67 -8v1v36q0 105 -74 179t-179 74h-57v-323h-307q12 -93 83.5 -155.5t166.5 -62.5h20q8 109 89 184t191 75zM812 427q-1 -104 -75 -177.5t-178 -73.5h-94q-1 -13 -1 -23
q0 -116 82.5 -198.5t199 -82.5t199 82.5t82.5 198.5q0 99 -61 175t-154 99z" />
    <glyph glyph-name="uniE634" unicode="&#xe634;" 
d="M1024 384q0 94 -116 164q33 131 -34 198q-44 45 -121 45q-33 0 -77 -11q-70 116 -164 116t-164 -116q-45 11 -77 11q-76 0 -121 -45q-66 -66 -34 -198q-116 -70 -116 -164t116 -164q-32 -132 34 -198q45 -45 121 -45q33 0 77 11q70 -116 164 -116t164 116q44 -11 77 -11
q76 0 121 45q67 67 34 198q116 70 116 164zM644 703q34 13 62 18q27 6 47 6q50 0 76 -26q38 -38 20 -123q-5 -27 -15 -55q0 -1 -1.5 -3.5t-1.5 -3.5q-14 -35 -35 -73q-23 32 -33 44q-29 35 -63 70q-1 2 -4 5l-3 3q-1 1 -4 3.5t-4 3.5q-32 32 -70 63q-24 20 -44 34
q35 19 73 34zM761 384q-25 -37 -60 -78q-29 -34 -53 -58q-25 -25 -58 -53q-38 -32 -78 -59q-40 27 -78 59q-34 29 -58 53q-22 22 -53 58q-36 43 -59 78q24 36 59 78q31 35 53 58q24 24 58 53q38 32 78 59q40 -27 78 -59q33 -29 58 -53q24 -24 53 -58q35 -41 60 -78zM512 832
q52 0 101 -72q-49 -20 -101 -52q-52 32 -101 52q49 72 101 72zM195 701q26 26 76 26q20 0 47 -6q28 -5 62 -18q39 -15 73 -34q-20 -14 -44 -34q-39 -32 -70 -63q-1 -1 -4 -3.5t-4 -3.5l-4 -4l-4 -4q-34 -35 -62 -69q-16 -20 -34 -44q-21 39 -33 72q-13 34 -19 62
q-17 86 20 123zM137 283q-73 49 -73 101t73 101q19 -50 51 -101q-32 -52 -51 -101zM380 65q-34 -13 -62 -18q-27 -6 -47 -6q-50 0 -76 26q-37 37 -20 123q6 28 19 62q12 32 33 72q18 -24 34 -44q27 -33 62 -69q2 -1 4.5 -4t3.5 -4t4 -3.5t4 -3.5q32 -32 70 -63
q24 -20 44 -34q-34 -19 -73 -34zM512 -64q-52 0 -101 72q49 20 101 52q52 -32 101 -52q-49 -72 -101 -72zM829 67q-26 -26 -76 -26q-20 0 -47 6q-28 5 -62 18q-38 15 -73 34q19 14 44 34q39 32 70 63q1 1 4 3.5t4 3.5t3.5 4t3.5 4q35 35 63 70q11 13 33 44q22 -38 35 -73
q0 -1 1 -3.5t2 -3.5q10 -27 15 -55q17 -85 -20 -123zM887 283q-19 48 -51 101q32 54 51 101q73 -49 73 -101t-73 -101zM640 384q0 -53 -37.5 -90.5t-90.5 -37.5t-90.5 37.5t-37.5 90.5t37.5 90.5t90.5 37.5t90.5 -37.5t37.5 -90.5z" />
    <glyph glyph-name="uniE635" unicode="&#xe635;" 
d="M635 131h-253q-15 0 -24.5 -9t-9.5 -24.5t9.5 -25t24.5 -9.5h253q15 0 24.5 9.5t9.5 25t-9.5 24.5t-24.5 9zM444 -70v-17q0 -15 11 -26.5t26 -11.5h58q16 0 27 11.5t11 26.5v17q33 3 55.5 26t22.5 56h-286q-3 -33 19.5 -57.5t55.5 -24.5zM509 896q-93 0 -171.5 -46
t-124.5 -124.5t-46 -170.5q0 -118 72 -212q61 -77 113 -164h314q51 87 112 164q72 94 72 212q0 92 -45 170.5t-124 124.5t-172 46zM509 777q-93 0 -157.5 -65t-64.5 -157q0 -16 -9.5 -25t-25 -9t-25 9t-9.5 25q0 120 85 205t206 85q15 0 24.5 -9.5t9.5 -24.5q0 -14 -10 -24
t-24 -10z" />
    <glyph glyph-name="uniE636" unicode="&#xe636;" 
d="M896 0h-64v448v0v10q-5 129 -98 219.5t-222 90.5t-222 -90.5t-98 -219.5v-10v0v-448h-64v-64h-64v-64h896v64h-64v64zM768 0h-512v454q5 106 79 178t177 72t177 -72t79 -178v-454zM512 672q-14 0 -23 -9t-9 -23t9 -23t23 -9q67 0 113.5 -46.5t46.5 -113.5q0 -14 9 -23
t23 -9t23 9t9 23q0 94 -65 159t-159 65zM109 896l-45 -45l179 -134zM64 640v-64l128 32zM928 832l-150 -122l182 68z" />
    <glyph glyph-name="uniE637" unicode="&#xe637;" 
d="M1004 153v1h-1l-346 600v-1q-4 7 -12 11h1l-103 59l374 -647q0 -1 1 -1q5 -10 2 -20.5t-12 -16.5l-384 -222l17 -28v-1v-2q6 -9 16.5 -12t19.5 2l418 241h-1q10 6 13 16.5t-3 20.5zM819 164q10 5 12.5 16t-2.5 20q0 1 -0.5 1t-0.5 1l-346 599q-5 7 -12 10l-141 82v-1
q-12 7 -24 2l-3 -1v-1l-272 -157q-13 -7 -14 -23v1v-164q-1 -9 4 -16v-1l345 -597l1 -1v-1q5 -10 15.5 -13t20.5 2l417 241v1zM249 673q-18 -10 -38 -5t-30 23t-5 38t23 30t38 5t30 -23t5 -38t-23 -30z" />
    <glyph glyph-name="uniE638" unicode="&#xe638;" 
d="M0 534l93 86l419 -451l416 451l96 -86l-512 -554z" />
    <glyph glyph-name="uniE639" unicode="&#xe639;" 
d="M278 -212l-86 93l451 419l-451 419l86 93l554 -512z" />
  </font>
</defs>
</svg>
